# xmcd
#
# Track frame offsets: 
#        150
#        18732
#        61975
#
# Disc length: 1236 seconds
#
# Revision: 0
# Processed by: cddbd v1.5.1PL0 Copyright (c) Steve Scherf et al.
# Submitted via: ExactAudioCopy v0.95a3
#
DISCID=2104d203
DTITLE=Michael Bolton - A Love So Beautiful 
DYEAR=1996
DGENRE=Pop
TTITLE0=A Love So Beautiful (Album Version)
TTITLE1=Can I Touch You There (Classic Club Version)
TTITLE2=Can I Touch You There (Mokran Extended)
EXTD=
EXTT0=
EXTT1=
EXTT2=
PLAYORDER=
